Run_30001
nRows=4
nColumns=161

# SIMM Motion File Header:
name Run_30001
datacolumns 161
datarows 4
otherdata 1
range 2.71666700 2.74166700
endheader
time	pelvis_tilt	pelvis_list	pelvis_rotation	pelvis_tx	pelvis_ty	pelvis_tz	hip_flexion_r	hip_adduction_r	hip_rotation_r	knee_angle_r	ankle_angle_r	hip_flexion_l	hip_adduction_l	hip_rotation_l	knee_angle_l	ankle_angle_l	lumbar_extension	lumbar_bending	lumbar_rotation	arm_flex_r	arm_add_r	arm_rot_r	elbow_flex_r	pro_sup_r	arm_flex_l	arm_add_l	arm_rot_l	elbow_flex_l	pro_sup_l	subtalar_angle_r	mtp_angle_r	subtalar_angle_l	mtp_angle_l	wrist_flex_r	wrist_dev_r	wrist_flex_l	wrist_dev_l	LASI_tx	LASI_ty	LASI_tz	RASI_tx	RASI_ty	RASI_tz	LPSI_tx	LPSI_ty	LPSI_tz	RPSI_tx	RPSI_ty	RPSI_tz	RTH1_tx	RTH1_ty	RTH1_tz	RTH3_tx	RTH3_ty	RTH3_tz	LTH1_tx	LTH1_ty	LTH1_tz	LTH2_tx	LTH2_ty	LTH2_tz	LTH3_tx	LTH3_ty	LTH3_tz	RTB1_tx	RTB1_ty	RTB1_tz	RTB2_tx	RTB2_ty	RTB2_tz	RTB3_tx	RTB3_ty	RTB3_tz	LTB1_tx	LTB1_ty	LTB1_tz	LTB2_tx	LTB2_ty	LTB2_tz	LTB3_tx	LTB3_ty	LTB3_tz	RCAL_tx	RCAL_ty	RCAL_tz	RTOE_tx	RTOE_ty	RTOE_tz	RMT5_tx	RMT5_ty	RMT5_tz	LCAL_tx	LCAL_ty	LCAL_tz	LTOE_tx	LTOE_ty	LTOE_tz	LMT5_tx	LMT5_ty	LMT5_tz	LACR_tx	LACR_ty	LACR_tz	RACR_tx	RACR_ty	RACR_tz	CLAV_tx	CLAV_ty	CLAV_tz	C7_tx	C7_ty	C7_tz	RUA1_tx	RUA1_ty	RUA1_tz	RUA2_tx	RUA2_ty	RUA2_tz	RUA3_tx	RUA3_ty	RUA3_tz	RLEL_tx	RLEL_ty	RLEL_tz	RMEL_tx	RMEL_ty	RMEL_tz	LUA1_tx	LUA1_ty	LUA1_tz	LUA2_tx	LUA2_ty	LUA2_tz	LUA3_tx	LUA3_ty	LUA3_tz	LLEL_tx	LLEL_ty	LLEL_tz	LMEL_tx	LMEL_ty	LMEL_tz	RFAsuperior_tx	RFAsuperior_ty	RFAsuperior_tz	RFAradius_tx	RFAradius_ty	RFAradius_tz	RFAulna_tx	RFAulna_ty	RFAulna_tz	LFAsuperior_tx	LFAsuperior_ty	LFAsuperior_tz	LFAradius_tx	LFAradius_ty	LFAradius_tz	LFAulna_tx	LFAulna_ty	LFAulna_tz
      2.71666700	     -5.50672705	      3.26663825	     -0.19922164	      0.93127478	      1.02589860	     -0.30804535	     29.20570768	      1.82289564	     11.39925560	    -12.14560782	      5.97640550	    -19.14738578	      7.73529134	      6.05024523	    -27.40111486	    -25.53885744	     -3.15198494	     -2.14582226	    -20.31021696	    -55.73726297	    -25.55158921	    -10.36684514	     86.25140830	    103.64548910	    -26.10765744	    -24.14356529	      2.77672464	    125.97769002	    115.02906958	      0.00000000	      0.00000000	      0.00000000	      0.00000000	      0.00000000	      0.00000000	      0.00000000	      0.00000000	      0.94319843	      1.05311448	     -0.42232494	      0.94106768	      1.04747676	     -0.19351290	      0.78748778	      1.10320001	     -0.35690908	      0.77437808	      1.09529011	     -0.25907688	      0.91298994	      0.88599756	     -0.13263796	      1.00445594	      0.64414445	     -0.19031152	      0.83506843	      0.87819966	     -0.48136410	      0.83887201	      0.75602598	     -0.44962917	      0.72457846	      0.67991795	     -0.43720438	      1.11289849	      0.44307865	     -0.26818499	      1.09255368	      0.37865609	     -0.20124244	      1.11951728	      0.32158371	     -0.27216593	      0.61494891	      0.47309962	     -0.36350045	      0.52311155	      0.46838605	     -0.43058314	      0.47278447	      0.37722361	     -0.36536821	      1.05587711	      0.12527089	     -0.27234566	      1.25202502	      0.19269392	     -0.31335117	      1.24896362	      0.16169002	     -0.22173397	      0.32293558	      0.38726143	     -0.36003470	      0.37092664	      0.18976071	     -0.31913194	      0.33205054	      0.18472203	     -0.40118699	      0.96273885	      1.51971637	     -0.47442962	      0.84288067	      1.52708207	     -0.11448093	      0.95678753	      1.50649926	     -0.25193078	      0.84833921	      1.56391701	     -0.32227814	      0.72718125	      1.44957202	     -0.08001078	      0.67903663	      1.46857399	     -0.13616125	      0.64912760	      1.40920447	     -0.06884781	      0.58430889	      1.36820756	     -0.06484407	      0.57699486	      1.34724590	     -0.14532773	      0.92847144	      1.39810711	     -0.55515646	      0.86277116	      1.35818605	     -0.57826636	      0.93282018	      1.31679980	     -0.58817396	      0.89286737	      1.24196050	     -0.61883251	      0.82117223	      1.23701307	     -0.56465623	      0.64124113	      1.25540892	     -0.04435399	      0.69903953	      1.14860191	     -0.07503078	      0.64084467	      1.12679801	     -0.04319332	      0.98532890	      1.22237423	     -0.52845284	      1.01756029	      1.25090012	     -0.40943553	      1.05222337	      1.19756291	     -0.43771230
      2.72500000	     -4.77942757	      3.29315792	     -0.51862845	      0.93151807	      1.02405676	     -0.30720916	     28.01300940	      2.11449590	     11.07659223	    -11.74002741	      6.32630059	    -18.24331260	      7.65359508	      4.54909541	    -32.68972081	    -24.34958644	     -4.11124506	     -2.19901422	    -19.67678639	    -55.31993162	    -25.14205306	    -10.35491264	     86.32551193	    103.71147240	    -26.33948069	    -23.91860072	      2.74375996	    125.44525841	    115.36868417	      0.00000000	      0.00000000	      0.00000000	      0.00000000	      0.00000000	      0.00000000	      0.00000000	      0.00000000	      0.94346187	      1.05169990	     -0.42181084	      0.94014945	      1.04521952	     -0.19368295	      0.78684534	      1.09973665	     -0.35657103	      0.77393920	      1.09102215	     -0.25893820	      0.91159578	      0.88232457	     -0.13172776	      1.00140033	      0.64024208	     -0.19151729	      0.83972952	      0.87324085	     -0.48074524	      0.84531060	      0.75214180	     -0.44851404	      0.73262389	      0.67381438	     -0.43890391	      1.10975783	      0.43918092	     -0.27035187	      1.08911957	      0.37436995	     -0.20389310	      1.11644754	      0.31777122	     -0.27489767	      0.61947201	      0.47013230	     -0.36633138	      0.52583984	      0.47319775	     -0.43195498	      0.47119849	      0.38391285	     -0.36792308	      1.05280803	      0.12126150	     -0.27671119	      1.24913000	      0.18928329	     -0.31558135	      1.24509027	      0.15820446	     -0.22402793	      0.32148720	      0.40285619	     -0.36055902	      0.36005696	      0.20229413	     -0.32483074	      0.32043931	      0.20130766	     -0.40681149	      0.96281089	      1.51658952	     -0.47467313	      0.84474941	      1.52424415	     -0.11358648	      0.95781513	      1.50364142	     -0.25190926	      0.84929061	      1.56171119	     -0.32150911	      0.72905588	      1.44582014	     -0.07923535	      0.68079363	      1.46495976	     -0.13536950	      0.65124931	      1.40510973	     -0.06833540	      0.58655333	      1.36404733	     -0.06427874	      0.57933939	      1.34299765	     -0.14478151	      0.92635045	      1.39522300	     -0.55508132	      0.86010107	      1.35563587	     -0.57725113	      0.92985261	      1.31378919	     -0.58860088	      0.88900502	      1.23922299	     -0.61802049	      0.81840965	      1.23499356	     -0.56329463	      0.64401530	      1.25149833	     -0.04404712	      0.70229759	      1.14498890	     -0.07488273	      0.64424856	      1.12294747	     -0.04296486	      0.98204740	      1.21748275	     -0.52884157	      1.01572676	      1.24481629	     -0.41006675	      1.04960835	      1.19148470	     -0.43898966
      2.73333300	     -4.10866825	      3.16803227	     -0.84385147	      0.93177006	      1.02140471	     -0.30647132	     26.94703994	      2.58030927	     10.44328238	    -11.87004068	      6.88186853	    -17.16517738	      7.32175378	      2.96605385	    -38.10835780	    -23.00949855	     -5.01359468	     -2.06232713	    -18.98023036	    -54.82452108	    -24.81571122	    -10.28664802	     86.35176567	    103.71769612	    -26.56393580	    -23.52646242	      2.65996166	    124.74341257	    115.75643370	      0.00000000	      0.00000000	      0.00000000	      0.00000000	      0.00000000	      0.00000000	      0.00000000	      0.00000000	      0.94375998	      1.04927881	     -0.42151456	      0.93919065	      1.04240958	     -0.19376488	      0.78628597	      1.09533944	     -0.35639693	      0.77394169	      1.08608865	     -0.25916942	      0.90973784	      0.87809101	     -0.13106323	      0.99881688	      0.63654361	     -0.19320794	      0.84480858	      0.86758554	     -0.48056498	      0.85179158	      0.74758390	     -0.44844462	      0.74072286	      0.66706913	     -0.44051014	      1.10593624	      0.43435453	     -0.27235701	      1.08419293	      0.36908466	     -0.20666169	      1.11162883	      0.31286670	     -0.27769621	      0.62500568	      0.46648355	     -0.36924207	      0.53066201	      0.47701596	     -0.43325805	      0.47130393	      0.39035709	     -0.37020653	      1.04659020	      0.11643089	     -0.28160665	      1.24361270	      0.18437669	     -0.31735486	      1.23805954	      0.15283463	     -0.22611608	      0.32208078	      0.41838949	     -0.36076926	      0.35154962	      0.21529275	     -0.33086265	      0.31129475	      0.21855486	     -0.41258896	      0.96284344	      1.51275142	     -0.47484820	      0.84684597	      1.52058489	     -0.11263707	      0.95886159	      1.49996464	     -0.25194436	      0.85026533	      1.55877775	     -0.32069197	      0.73125516	      1.44110318	     -0.07818920	      0.68275674	      1.46038275	     -0.13404338	      0.65380770	      1.39982494	     -0.06739411	      0.58925601	      1.35865013	     -0.06322784	      0.58208189	      1.33771613	     -0.14382585	      0.92404818	      1.39175239	     -0.55485410	      0.85719020	      1.35253143	     -0.57597020	      0.92640863	      1.30991735	     -0.58831014	      0.88461806	      1.23578293	     -0.61686181	      0.81523352	      1.23229017	     -0.56139714	      0.64732118	      1.24633688	     -0.04342952	      0.70604568	      1.14023402	     -0.07458137	      0.64822331	      1.11783221	     -0.04251014	      0.97845738	      1.21170414	     -0.52922481	      1.01399516	      1.23746042	     -0.41075122	      1.04681724	      1.18419483	     -0.44061611
      2.74166700	     -3.55326225	      2.91393342	     -1.17322520	      0.93194085	      1.01783671	     -0.30583662	     26.03376868	      3.18732917	      9.69037210	    -12.41627271	      7.64545367	    -15.88388694	      6.75268316	      1.34842623	    -43.60283273	    -21.52341541	     -5.80151045	     -1.75999414	    -18.21835619	    -54.26488567	    -24.57997489	    -10.16896742	     86.35910520	    103.66511737	    -26.79625568	    -22.98778472	      2.54351558	    123.88949111	    116.03724195	      0.00000000	      0.00000000	      0.00000000	      0.00000000	      0.00000000	      0.00000000	      0.00000000	      0.00000000	      0.94405857	      1.04575366	     -0.42147005	      0.93820218	      1.03883808	     -0.19370084	      0.78582267	      1.09003951	     -0.35643790	      0.77413268	      1.08063798	     -0.25967311	      0.90754857	      0.87337072	     -0.13073166	      0.99642843	      0.63268248	     -0.19518067	      0.85002301	      0.86135981	     -0.48075494	      0.85816087	      0.74233736	     -0.44942522	      0.74878144	      0.65965693	     -0.44213425	      1.10135968	      0.42861612	     -0.27416768	      1.07798572	      0.36292613	     -0.20938833	      1.10510883	      0.30696488	     -0.28050004	      0.63143165	      0.46223974	     -0.37243641	      0.53735856	      0.47968427	     -0.43477136	      0.47310343	      0.39647602	     -0.37227010	      1.03750642	      0.11079181	     -0.28667434	      1.23552497	      0.17836959	     -0.31889563	      1.22833796	      0.14581344	     -0.22818567	      0.32472869	      0.43361801	     -0.36063944	      0.34539872	      0.22858726	     -0.33709294	      0.30488329	      0.23624110	     -0.41842817	      0.96278042	      1.50820927	     -0.47499500	      0.84917705	      1.51605835	     -0.11162720	      0.95991346	      1.49543082	     -0.25201871	      0.85122688	      1.55503652	     -0.31983109	      0.73376744	      1.43542964	     -0.07690300	      0.68489566	      1.45484580	     -0.13219759	      0.65676282	      1.39341739	     -0.06601701	      0.59238929	      1.35206309	     -0.06166083	      0.58512309	      1.33146658	     -0.14246321	      0.92163416	      1.38764946	     -0.55446146	      0.85412065	      1.34889660	     -0.57448802	      0.92257982	      1.30521122	     -0.58731261	      0.87978330	      1.23168817	     -0.61545764	      0.81139636	      1.22905880	     -0.55900306	      0.65114992	      1.23997967	     -0.04247100	      0.71030518	      1.13440397	     -0.07411562	      0.65279841	      1.11150374	     -0.04180975	      0.97457031	      1.20510773	     -0.52961725	      1.01236846	      1.22892317	     -0.41148985	      1.04375532	      1.17564707	     -0.44249317
